<?xml version="1.0" encoding="utf-8"?>
<!-- Generator: Adobe Illustrator 16.0.0, SVG Export Plug-In . SVG Version: 6.00 Build 0)  -->
<!DOCTYPE svg PUBLIC "-//W3C//DTD SVG 1.1//EN" "http://www.w3.org/Graphics/SVG/1.1/DTD/svg11.dtd">
<svg version="1.1" id="Layer_1" xmlns="http://www.w3.org/2000/svg" xmlns:xlink="http://www.w3.org/1999/xlink" x="0px" y="0px"
	 width="1000px" height="1000px" viewBox="0 0 1000 1000" enable-background="new 0 0 1000 1000" xml:space="preserve">
<path d="M904.957,903.957H97.044c-46.965,0-85.043-38.08-85.043-85.044V181.086
	c0-46.963,38.078-85.043,85.043-85.043h807.913c46.964,0,85.043,38.08,85.043,85.043v637.827
	C990,865.877,951.921,903.957,904.957,903.957z M947.479,181.086c0-23.46-19.063-42.521-42.521-42.521H97.044
	c-23.473,0-42.522,19.061-42.522,42.521v127.567h892.957V181.086z M947.479,351.175H54.522v467.738
	c0,23.46,19.049,42.522,42.522,42.522h807.913c23.459,0,42.521-19.063,42.521-42.522V351.175z M862.436,648.827h-42.522
	c-11.731,0-21.262-9.51-21.262-21.261v-42.522c0-11.73,9.53-21.261,21.262-21.261h42.522c11.75,0,21.26,9.53,21.26,21.261v42.522
	C883.695,639.317,874.186,648.827,862.436,648.827z M862.436,500.001h-42.522c-11.731,0-21.262-9.51-21.262-21.261v-42.522
	c0-11.752,9.53-21.261,21.262-21.261h42.522c11.75,0,21.26,9.509,21.26,21.261v42.522
	C883.695,490.491,874.186,500.001,862.436,500.001z M692.349,648.827h-42.521c-11.732,0-21.263-9.51-21.263-21.261v-42.522
	c0-11.73,9.53-21.261,21.263-21.261h42.521c11.75,0,21.26,9.53,21.26,21.261v42.522
	C713.608,639.317,704.099,648.827,692.349,648.827z M692.349,500.001h-42.521c-11.732,0-21.263-9.51-21.263-21.261v-42.522
	c0-11.752,9.53-21.261,21.263-21.261h42.521c11.75,0,21.26,9.509,21.26,21.261v42.522
	C713.608,490.491,704.099,500.001,692.349,500.001z M522.26,648.827h-42.521c-11.761,0-21.261-9.51-21.261-21.261v-42.522
	c0-11.73,9.5-21.261,21.261-21.261h42.521c11.752,0,21.262,9.53,21.262,21.261v42.522
	C543.521,639.317,534.012,648.827,522.26,648.827z M522.26,500.001h-42.521c-11.761,0-21.261-9.51-21.261-21.261v-42.522
	c0-11.752,9.5-21.261,21.261-21.261h42.521c11.752,0,21.262,9.509,21.262,21.261v42.522
	C543.521,490.491,534.012,500.001,522.26,500.001z M352.174,797.652h-42.521c-11.762,0-21.261-9.51-21.261-21.261V733.87
	c0-11.753,9.5-21.261,21.261-21.261h42.521c11.762,0,21.261,9.508,21.261,21.261v42.521
	C373.435,788.143,363.936,797.652,352.174,797.652z M352.174,648.827h-42.521c-11.762,0-21.261-9.51-21.261-21.261v-42.522
	c0-11.73,9.5-21.261,21.261-21.261h42.521c11.762,0,21.261,9.53,21.261,21.261v42.522
	C373.435,639.317,363.936,648.827,352.174,648.827z M352.174,500.001h-42.521c-11.762,0-21.261-9.51-21.261-21.261v-42.522
	c0-11.752,9.5-21.261,21.261-21.261h42.521c11.762,0,21.261,9.509,21.261,21.261v42.522
	C373.435,490.491,363.936,500.001,352.174,500.001z M182.087,797.652h-42.521c-11.762,0-21.261-9.51-21.261-21.261V733.87
	c0-11.753,9.499-21.261,21.261-21.261h42.521c11.763,0,21.261,9.508,21.261,21.261v42.521
	C203.348,788.143,193.85,797.652,182.087,797.652z M182.087,648.827h-42.521c-11.762,0-21.261-9.51-21.261-21.261v-42.522
	c0-11.73,9.499-21.261,21.261-21.261h42.521c11.763,0,21.261,9.53,21.261,21.261v42.522
	C203.348,639.317,193.85,648.827,182.087,648.827z M479.739,712.609h42.521c11.752,0,21.262,9.508,21.262,21.261v42.521
	c0,11.751-9.51,21.261-21.262,21.261h-42.521c-11.761,0-21.261-9.51-21.261-21.261V733.87
	C458.478,722.117,467.978,712.609,479.739,712.609z"/>
</svg>
