<?xml version="1.0" encoding="utf-8"?>
<!-- Generator: Adobe Illustrator 16.0.0, SVG Export Plug-In . SVG Version: 6.00 Build 0)  -->
<!DOCTYPE svg PUBLIC "-//W3C//DTD SVG 1.1//EN" "http://www.w3.org/Graphics/SVG/1.1/DTD/svg11.dtd">
<svg version="1.1" id="Layer_1" xmlns="http://www.w3.org/2000/svg" xmlns:xlink="http://www.w3.org/1999/xlink" x="0px" y="0px"
	 width="1000px" height="1000px" viewBox="0 0 1000 1000" enable-background="new 0 0 1000 1000" xml:space="preserve">
<path fill="#FFFFFF" d="M684.724,370.928V184.625C684.724,89.997,601.85,13,500,13c-95.341,0-174.049,67.471-183.721,153.715
	c-2.182,11.552-3.336,23.705-3.336,36.438v169.169c-89.686,60.366-148.805,162.815-148.805,278.817
	C164.138,836.332,314.805,987,500,987c185.194,0,335.863-150.668,335.863-335.861C835.862,534.157,775.674,431.081,684.724,370.928z
	 M567.172,684.725c0,37.045-30.128,67.172-67.172,67.172c-37.045,0-67.173-30.127-67.173-67.172V583.966
	c0-37.046,30.127-67.173,67.173-67.173c37.044,0,67.172,30.127,67.172,67.173V684.725z M500,315.276
	c-54.704,0-106.392,13.154-152.077,36.453V203.153c0-5.672,0.292-11.275,0.851-16.798c0.001-0.006,0.001-0.012,0.002-0.018
	c5.012-49.475,31.879-92.385,70.499-118.359c23.369-13.539,51.06-21.391,80.726-21.391c83.344,0,151.138,61.933,151.138,138.039
	v166.89l0.017,0.117C605.662,328.576,554.409,315.276,500,315.276z"/>
</svg>
