<?xml version="1.0" encoding="utf-8"?>
<!-- Generator: Adobe Illustrator 16.0.0, SVG Export Plug-In . SVG Version: 6.00 Build 0)  -->
<!DOCTYPE svg PUBLIC "-//W3C//DTD SVG 1.1//EN" "http://www.w3.org/Graphics/SVG/1.1/DTD/svg11.dtd">
<svg version="1.1" id="Layer_1" xmlns="http://www.w3.org/2000/svg" xmlns:xlink="http://www.w3.org/1999/xlink" x="0px" y="0px"
	 width="1000px" height="1000px" viewBox="0 0 1000 1000" enable-background="new 0 0 1000 1000" xml:space="preserve">
<g>
	<g>
		<path d="M947.851,698.105C839.299,589.523,822.964,535.04,822.964,361.563
			c0-178.402-144.59-323.023-322.961-323.023c-178.372,0-322.961,144.624-322.961,323.023c0,93.537-2.491,128.455-15.367,171.324
			c-16.012,53.406-48.884,104.537-109.536,165.219c-29.056,29.072-8.474,78.771,32.627,78.771h256.063l-2.324,23.073
			c0,89.201,72.296,161.512,161.481,161.512s161.481-72.311,161.481-161.512l-2.324-23.073h256.08
			C956.341,776.876,976.922,727.178,947.851,698.105z M500.017,915.314c-63.698,0-115.349-51.667-115.349-115.365l2.324-23.073
			h226.024l2.354,23.073C615.368,863.647,563.715,915.314,500.017,915.314z M84.78,730.73
			C223.188,592.292,223.188,500,223.188,361.563c0-152.897,123.933-276.877,276.815-276.877s276.814,123.98,276.829,276.877
			c0,138.438,0,230.729,138.408,369.168H84.78z"/>
	</g>
</g>
</svg>
