<?xml version="1.0" encoding="utf-8"?>
<!-- Generator: Adobe Illustrator 16.0.0, SVG Export Plug-In . SVG Version: 6.00 Build 0)  -->
<!DOCTYPE svg PUBLIC "-//W3C//DTD SVG 1.1//EN" "http://www.w3.org/Graphics/SVG/1.1/DTD/svg11.dtd">
<svg version="1.1" id="Outlined" xmlns="http://www.w3.org/2000/svg" xmlns:xlink="http://www.w3.org/1999/xlink" x="0px" y="0px"
	 width="1000px" height="1000px" viewBox="0 0 1000 1000" enable-background="new 0 0 1000 1000" xml:space="preserve">
<title></title>
<g>
	<g>
		<path d="M801.576,228.294h-23.668v-52.68c0-75.013-61.078-136.092-136.092-136.092H356.083
			c-75.013,0-136.091,61.079-136.091,136.092v52.68h-21.568c-75.013,0-136.092,61.08-136.092,136.092v219.503
			c0,75.012,61.079,136.092,136.092,136.092h21.377v172.547c0,37.41,30.539,67.95,67.95,67.95h422.017
			c37.41,0,67.951-30.54,67.951-67.95V719.98h23.857c75.014,0,136.092-61.08,136.092-136.092V364.386
			C937.668,289.374,876.59,228.294,801.576,228.294z M271.336,175.614c0-46.573,37.983-84.557,84.556-84.557h285.543
			c46.574,0,84.557,37.983,84.557,84.557v52.68H271.336V175.614z M726.184,892.908c0,8.972-7.445,16.416-16.416,16.416H287.751
			c-8.971,0-16.415-7.444-16.415-16.416V608.319h454.848V892.908z M886.133,584.078c0,46.573-37.982,84.557-84.557,84.557h-23.668
			v-60.315h33.975c14.316,0,25.768-11.451,25.768-25.767c0-14.316-11.451-25.768-25.768-25.768H182.008
			c-14.315,0-25.768,11.451-25.768,25.768c0,14.315,11.452,25.767,25.768,25.767h37.983v60.315h-21.568
			c-46.574,0-84.556-37.983-84.556-84.557V364.576c0-46.572,37.982-84.556,84.556-84.556h603.152
			c46.574,0,84.557,37.983,84.557,84.556V584.078z"/>
		<path d="M333.751,735.059h328.108c14.314,0,25.768-11.452,25.768-25.768s-11.453-25.768-25.768-25.768H333.751
			c-14.316,0-25.768,11.452-25.768,25.768S319.627,735.059,333.751,735.059z"/>
		<path d="M663.959,788.884H335.66c-14.315,0-25.767,11.453-25.767,25.768c0,14.315,11.452,25.769,25.767,25.769h328.11
			c14.314,0,25.766-11.453,25.766-25.769C689.535,800.337,678.084,788.884,663.959,788.884z"/>
		<path d="M801.004,329.456h-52.299c-14.314,0-25.768,11.453-25.768,25.768c0,14.315,11.453,25.769,25.768,25.769h52.299
			c14.316,0,25.768-11.453,25.768-25.769C826.771,340.909,815.32,329.456,801.004,329.456z"/>
	</g>
</g>
</svg>
