<?xml version="1.0" encoding="utf-8"?>
<!-- Generator: Adobe Illustrator 16.0.0, SVG Export Plug-In . SVG Version: 6.00 Build 0)  -->
<!DOCTYPE svg PUBLIC "-//W3C//DTD SVG 1.1//EN" "http://www.w3.org/Graphics/SVG/1.1/DTD/svg11.dtd">
<svg version="1.1" id="Layer_1" xmlns="http://www.w3.org/2000/svg" xmlns:xlink="http://www.w3.org/1999/xlink" x="0px" y="0px"
	 width="1000px" height="1000px" viewBox="0 0 1000 1000" enable-background="new 0 0 1000 1000" xml:space="preserve">
<g>
	<path stroke-width="8.3395" stroke-miterlimit="10" d="M939.847,391.037H848.1
		c-14.746,0-26.896-8.118-32.543-21.739c-5.648-13.62-2.778-27.966,7.627-38.391l64.869-64.851
		c9.534-9.535,14.782-22.228,14.782-35.704c0-13.493-5.248-26.169-14.782-35.721l-82.685-82.686
		c-19.068-19.067-52.32-19.104-71.425,0l-64.852,64.852c-10.424,10.406-24.807,13.312-38.392,7.645
		c-13.62-5.647-21.737-17.796-21.737-32.543V60.153c0-27.84-22.646-50.486-50.486-50.486H441.523
		c-27.84,0-50.486,22.646-50.486,50.486V151.9c0,14.747-8.118,26.896-21.738,32.543c-13.584,5.685-27.967,2.761-38.392-7.645
		l-64.851-64.852c-19.105-19.104-52.356-19.068-71.425,0l-82.685,82.686c-9.534,9.534-14.783,22.229-14.783,35.721
		c0,13.476,5.249,26.152,14.783,35.704l64.869,64.851c10.406,10.424,13.257,24.771,7.627,38.391
		c-5.63,13.621-17.797,21.739-32.543,21.739H60.153c-27.84,0-50.486,22.646-50.486,50.486v116.936
		c0,27.857,22.646,50.504,50.486,50.504H151.9c14.747,0,26.896,8.117,32.543,21.737c5.648,13.621,2.779,27.968-7.627,38.392
		l-64.869,64.852c-9.534,9.534-14.783,22.228-14.783,35.703c0,13.493,5.249,26.17,14.783,35.722l82.685,82.686
		c19.086,19.087,52.32,19.123,71.425,0l64.851-64.87c10.424-10.405,24.752-13.275,38.392-7.627
		c13.62,5.647,21.738,17.797,21.738,32.543v91.747c0,27.84,22.646,50.486,50.486,50.486h116.936
		c27.84,0,50.486-22.646,50.486-50.486V848.1c0-14.746,8.117-26.896,21.737-32.543c13.639-5.666,27.967-2.778,38.392,7.627
		l64.851,64.87c19.105,19.104,52.356,19.068,71.425,0l82.686-82.686c9.534-9.533,14.782-22.229,14.782-35.722
		c0-13.476-5.248-26.151-14.782-35.703l-64.869-64.852c-10.406-10.424-13.258-24.771-7.627-38.392
		c5.629-13.62,17.814-21.737,32.561-21.737h91.747c27.84,0,50.486-22.646,50.486-50.486V441.523
		C990.333,413.683,967.687,391.037,939.847,391.037z M954.012,558.477c0,7.81-6.355,14.166-14.165,14.166H848.1
		c-29.492,0-54.826,16.925-66.104,44.166c-11.296,27.24-5.357,57.132,15.509,77.981l64.869,64.85c5.539,5.54,5.539,14.529,0,20.051
		l-82.684,82.684c-5.521,5.521-14.511,5.558-20.051,0l-64.85-64.869c-20.867-20.866-50.741-26.769-77.981-15.509
		c-27.241,11.277-44.166,36.611-44.166,66.104v91.747c0,7.81-6.356,14.165-14.166,14.165H441.523
		c-7.809,0-14.165-6.355-14.165-14.165V848.1c0-29.492-16.925-54.826-44.167-66.104c-9.134-3.795-18.542-5.648-27.84-5.648
		c-18.414,0-36.266,7.265-50.141,21.139l-64.851,64.87c-5.557,5.557-14.546,5.521-20.049,0l-82.685-82.685
		c-5.539-5.539-5.539-14.529,0-20.049l64.87-64.852c20.848-20.849,26.805-50.741,15.509-77.981
		c-11.278-27.223-36.611-44.147-66.104-44.147H60.153c-7.809,0-14.166-6.356-14.166-14.166V441.523
		c0-7.809,6.356-14.165,14.166-14.165H151.9c29.493,0,54.826-16.925,66.104-44.167c11.296-27.24,5.357-57.132-15.509-77.981
		l-64.87-64.851c-5.539-5.539-5.539-14.529,0-20.05l82.685-82.685c5.521-5.539,14.51-5.539,20.049,0l64.851,64.852
		c20.831,20.831,50.705,26.805,77.981,15.509c27.241-11.26,44.167-36.593,44.167-66.086V60.153c0-7.809,6.356-14.166,14.165-14.166
		h116.936c7.827,0,14.184,6.356,14.184,14.166V151.9c0,29.493,16.925,54.826,44.166,66.104
		c27.276,11.296,57.132,5.339,77.981-15.509l64.85-64.851c5.558-5.539,14.548-5.539,20.051,0l82.684,82.685
		c5.539,5.539,5.539,14.528,0,20.048l-64.869,64.851c-20.848,20.849-26.805,50.741-15.509,77.981
		c11.277,27.24,36.611,44.166,66.104,44.166h91.747c7.81-0.018,14.165,6.338,14.165,14.147V558.477z"/>
	<path fill="#63CEB6" stroke="#63CEB6" stroke-width="8.3395" stroke-miterlimit="10" d="M500,336.555
		c-90.13,0-163.445,73.314-163.445,163.445c0,90.13,73.314,163.444,163.445,163.444c90.13,0,163.444-73.314,163.444-163.444
		C663.444,409.87,590.13,336.555,500,336.555z M500,627.124c-70.081,0-127.124-57.043-127.124-127.124S429.919,372.876,500,372.876
		S627.124,429.919,627.124,500S570.081,627.124,500,627.124z"/>
</g>
</svg>
