<?xml version="1.0" encoding="iso-8859-1"?>
<!-- Generator: Adobe Illustrator 19.0.0, SVG Export Plug-In . SVG Version: 6.00 Build 0)  -->
<svg version="1.1" id="Layer_1" xmlns="http://www.w3.org/2000/svg" xmlns:xlink="http://www.w3.org/1999/xlink" x="0px" y="0px"
	 viewBox="0 0 512 512" style="enable-background:new 0 0 512 512;" xml:space="preserve">
<g>
	<g>
		<path d="M471.598,117.911c-25.73-40.092-61.978-72.169-104.824-92.765c-4.98-2.392-10.959-0.298-13.355,4.685
			c-2.394,4.981-0.298,10.96,4.685,13.355c39.502,18.989,72.923,48.566,96.65,85.536c24.357,37.952,37.23,81.964,37.23,127.279
			c0,130.124-105.862,235.985-235.985,235.985S20.015,386.122,20.015,256S125.876,20.015,256,20.015
			c5.527,0,10.007-4.481,10.007-10.007C266.007,4.481,261.527,0,256,0C114.84,0,0,114.84,0,256s114.84,256,256,256
			s256-114.84,256-256C512,206.845,498.03,159.094,471.598,117.911z"/>
	</g>
</g>
<g>
	<g>
		<path d="M444.23,169.847H331.133c-5.527,0-10.007,4.481-10.007,10.007s4.481,10.007,10.007,10.007h37.421
			c4.531,19.135,21.76,33.417,42.26,33.417c23.944,0,43.424-19.481,43.424-43.424C454.238,174.328,449.757,169.847,444.23,169.847z
			 M410.815,203.264c-9.33,0-17.402-5.487-21.161-13.402h42.322C428.217,197.779,420.145,203.264,410.815,203.264z"/>
	</g>
</g>
<g>
	<g>
		<path d="M273.305,169.847H160.207c-5.527,0-10.007,4.481-10.007,10.007s4.481,10.007,10.007,10.007h37.421
			c4.531,19.135,21.76,33.417,42.26,33.417c23.944,0,43.424-19.481,43.424-43.424C283.312,174.328,278.831,169.847,273.305,169.847z
			 M239.888,203.264c-9.329,0-17.402-5.487-21.161-13.402h42.322C257.29,197.779,249.218,203.264,239.888,203.264z"/>
	</g>
</g>
<g>
	<g>
		<path d="M378.669,373.038c-16.016-16.06-44.509-25.648-76.219-25.648c-30.325,0-59.606,9.73-76.419,25.392
			c-4.043,3.767-4.267,10.099-0.5,14.142c1.972,2.116,4.645,3.186,7.324,3.186c2.443,0,4.892-0.889,6.82-2.685
			c13.256-12.35,37.31-20.021,62.775-20.021c26.112,0,49.887,7.574,62.047,19.766c3.903,3.914,10.24,3.922,14.153,0.019
			C382.564,383.287,382.572,376.95,378.669,373.038z"/>
	</g>
</g>
<g>
	<g>
		<circle cx="327.214" cy="21.695" r="10.007"/>
	</g>
</g>
<g>
</g>
<g>
</g>
<g>
</g>
<g>
</g>
<g>
</g>
<g>
</g>
<g>
</g>
<g>
</g>
<g>
</g>
<g>
</g>
<g>
</g>
<g>
</g>
<g>
</g>
<g>
</g>
<g>
</g>
</svg>
