<?xml version="1.0" encoding="utf-8"?>
<!-- Generator: Adobe Illustrator 16.0.0, SVG Export Plug-In . SVG Version: 6.00 Build 0)  -->
<!DOCTYPE svg PUBLIC "-//W3C//DTD SVG 1.1//EN" "http://www.w3.org/Graphics/SVG/1.1/DTD/svg11.dtd">
<svg version="1.1" id="Layer_1" xmlns="http://www.w3.org/2000/svg" xmlns:xlink="http://www.w3.org/1999/xlink" x="0px" y="0px"
	 width="1000px" height="1000px" viewBox="0 0 1000 1000" enable-background="new 0 0 1000 1000" xml:space="preserve">
<g>
	<path fill="#FFFFFF" d="M500,489.35c108.292,0,196.088-106.633,196.088-238.173C696.088,119.633,667.264,13,500,13
		c-167.264,0-196.094,106.633-196.094,238.176C303.906,382.717,391.702,489.35,500,489.35z"/>
	<path fill="#FFFFFF" d="M129.626,853.014C129.593,844.994,129.56,850.754,129.626,853.014L129.626,853.014z"/>
	<path fill="#FFFFFF" d="M870.355,859.277C870.463,857.082,870.392,844.045,870.355,859.277L870.355,859.277z"/>
	<path fill="#FFFFFF" d="M869.939,843.396c-3.632-229.146-33.56-294.439-262.569-335.77c0,0-32.237,41.077-107.374,41.077
		c-75.137,0-107.378-41.077-107.378-41.077C166.107,548.505,134.36,612.831,130.186,835.952c-0.342,18.22-0.501,19.177-0.562,17.062
		c0.014,3.963,0.031,11.293,0.031,24.074c0,0,54.521,109.912,370.342,109.912c315.815,0,370.342-109.912,370.342-109.912
		c0-8.212,0.006-13.922,0.015-17.807C870.293,860.588,870.17,858.054,869.939,843.396z"/>
</g>
</svg>
