<?xml version="1.0" encoding="utf-8"?>
<!-- Generator: Adobe Illustrator 16.0.0, SVG Export Plug-In . SVG Version: 6.00 Build 0)  -->
<!DOCTYPE svg PUBLIC "-//W3C//DTD SVG 1.1//EN" "http://www.w3.org/Graphics/SVG/1.1/DTD/svg11.dtd">
<svg version="1.1" id="Layer_1" xmlns="http://www.w3.org/2000/svg" xmlns:xlink="http://www.w3.org/1999/xlink" x="0px" y="0px"
	 width="1000px" height="1000px" viewBox="0 0 1000 1000" enable-background="new 0 0 1000 1000" xml:space="preserve">
<g>
	<path d="M351.235,404.05v100.761c0,6.415-3.179,12.296-8.475,15.771c-7.146,4.811-11.647,13.095-11.647,21.915
		v46.506c0,14.699,11.647,26.459,26.209,26.459c14.563,0,26.211-11.76,26.211-26.459v-34.479
		c12.711-13.364,20.12-31.004,20.12-49.979V403.782c0-64.412-51.888-117.063-115.961-117.063H266.25
		c-63.805,0-115.961,52.384-115.961,117.063v100.762c0,18.976,7.412,36.615,20.119,49.979v71.361
		c-25.944,13.631-82.336,45.169-135.021,89.002c-17.474,14.433-27.271,35.547-27.271,58.265v68.956
		c0,14.7,11.65,26.461,26.211,26.461s26.212-11.761,26.212-26.461v-68.956c0-6.949,2.909-13.095,7.941-17.373
		c59.832-49.712,124.433-82.586,136.874-88.734c10.591-5.345,17.21-15.768,17.21-27.795v-97.02c0-8.819-4.236-17.105-11.648-21.916
		c-5.296-3.476-8.472-9.354-8.472-15.77V403.782c0-35.279,28.328-64.145,63.541-64.145h21.442
		C322.642,339.638,351.235,368.503,351.235,404.05z"/>
	<path d="M367.649,842.643v-89.27c0-10.957,4.766-21.382,13.237-28.33c78.101-64.68,162.556-107.711,178.706-115.729
		c11.119-5.611,18.003-16.837,18.003-29.132V454.563c0-8.819-4.236-17.104-11.648-21.916c-9.001-6.146-14.297-16.304-14.297-26.995
		V275.225c0-49.979,40.242-90.872,90.015-90.872h27.8c49.508,0,90.015,40.624,90.015,90.872v130.428
		c0,10.959-5.295,20.849-14.297,26.995c-7.147,4.812-11.648,13.097-11.648,21.916v125.618c0,12.295,6.884,23.521,18.003,28.866
		c16.15,8.018,100.604,51.048,178.706,115.728c8.472,6.95,13.237,17.373,13.237,28.332v89.268c0,14.7,11.649,26.459,26.211,26.459
		c14.563,0,26.211-11.759,26.211-26.459v-89.268c0-26.995-11.648-52.118-32.3-69.225c-70.689-58.8-146.407-100.494-177.384-116.529
		V466.858c16.416-16.036,25.947-37.953,25.947-61.472v-130.43c0-79.112-63.807-143.791-142.438-143.791H641.93
		c-78.366,0-142.437,64.412-142.437,143.791v130.43c0,23.519,9.531,45.436,25.946,61.472v100.495
		c-30.976,16.035-106.693,57.729-177.383,116.529c-20.649,17.106-32.298,42.229-32.298,69.225v89.268
		c0,14.7,11.648,26.459,26.21,26.459C356.528,868.834,368.177,857.075,367.649,842.643z"/>
</g>
</svg>
